<?xml version="1.0" encoding="iso-8859-1"?>
<!-- Generator: Adobe Illustrator 19.2.1, SVG Export Plug-In . SVG Version: 6.00 Build 0)  -->
<svg version="1.1" id="Layer_1" xmlns="http://www.w3.org/2000/svg" xmlns:xlink="http://www.w3.org/1999/xlink" x="0px" y="0px"
	 viewBox="0 0 50.15 42.527" style="enable-background:new 0 0 50.15 42.527;" xml:space="preserve">
<path style="fill:#F8F8F8;" d="M49.898,24.374L25.774,0.25c-0.333-0.333-0.732-0.333-1.065,0L13.19,11.91V6.22
	c0-0.576-0.751-1.862-1.328-1.862H8.789c-0.576,0-1.598,1.286-1.598,1.862v10.854l-7.023,7.3c-0.249,0.249-0.181,0.369-0.047,0.693
	c0.135,0.325,0.575,0.29,0.927,0.29H7.19v16h0.212h0.106c0.001,1,0.766,0.788,1.237,0.788l0,0l0.053,0.212h10.692h0.699V29.842
	c0-0.351,0.066-0.484,0.409-0.484h9.142c0.343,0,0.52,0.194,0.52,0.545c0,0-0.072-0.061-0.072-0.061v12.515h11.654l0.232,0.152
	c0.414,0,1.115,0.152,1.115-0.425V25.358h6.105c0.351,0,0.654,0.034,0.788-0.29C50.217,24.742,50.147,24.622,49.898,24.374z"/>
</svg>
