<?xml version="1.0" encoding="utf-8"?>
<!-- Generator: Adobe Illustrator 18.1.1, SVG Export Plug-In . SVG Version: 6.00 Build 0)  -->
<svg version="1.1" id="Layer_1" xmlns="http://www.w3.org/2000/svg" xmlns:xlink="http://www.w3.org/1999/xlink" x="0px" y="0px"
	 viewBox="0 0 210 140" enable-background="new 0 0 210 140" xml:space="preserve">
<g>
	<g>
		<line fill="none" stroke="#000000" stroke-width="4" stroke-miterlimit="10" x1="17" y1="26" x2="43" y2="26"/>
		<line fill="none" stroke="#000000" stroke-width="4" stroke-miterlimit="10" x1="17" y1="42" x2="43" y2="42"/>
	</g>
	<path d="M60,7c0-3.9-3.1-7-7-7H7C3.1,0,0,3.1,0,7v126c0,3.9,3.1,7,7,7h46c3.9,0,7-3.1,7-7V7z M29.9,120c-7.2,0-13-5.8-13-13
		s5.8-13,13-13s13,5.8,13,13S37,120,29.9,120z M50,63c0,3.9-3.1,7-7,7H17c-3.9,0-7-3.1-7-7V17c0-3.9,3.1-7,7-7h26c3.9,0,7,3.1,7,7
		V63z"/>
</g>
<g>
	<g>
		<line fill="none" stroke="#000000" stroke-width="4" stroke-miterlimit="10" x1="92" y1="26" x2="118" y2="26"/>
		<line fill="none" stroke="#000000" stroke-width="4" stroke-miterlimit="10" x1="92" y1="42" x2="118" y2="42"/>
	</g>
	<path d="M135,7c0-3.9-3.1-7-7-7H82c-3.9,0-7,3.1-7,7v126c0,3.9,3.1,7,7,7h46c3.9,0,7-3.1,7-7V7z M104.9,120c-7.2,0-13-5.8-13-13
		s5.8-13,13-13s13,5.8,13,13S112,120,104.9,120z M125,63c0,3.9-3.1,7-7,7H92c-3.9,0-7-3.1-7-7V17c0-3.9,3.1-7,7-7h26
		c3.9,0,7,3.1,7,7V63z"/>
</g>
<g>
	<g>
		<line fill="none" stroke="#000000" stroke-width="4" stroke-miterlimit="10" x1="167" y1="26" x2="193" y2="26"/>
		<line fill="none" stroke="#000000" stroke-width="4" stroke-miterlimit="10" x1="167" y1="42" x2="193" y2="42"/>
	</g>
	<path d="M210,7c0-3.9-3.1-7-7-7h-46c-3.9,0-7,3.1-7,7v126c0,3.9,3.1,7,7,7h46c3.9,0,7-3.1,7-7V7z M179.9,120c-7.2,0-13-5.8-13-13
		s5.8-13,13-13s13,5.8,13,13S187,120,179.9,120z M200,63c0,3.9-3.1,7-7,7h-26c-3.9,0-7-3.1-7-7V17c0-3.9,3.1-7,7-7h26
		c3.9,0,7,3.1,7,7V63z"/>
</g>
</svg>
