<?xml version="1.0" encoding="iso-8859-1"?>
<!-- Generator: Adobe Illustrator 19.2.1, SVG Export Plug-In . SVG Version: 6.00 Build 0)  -->
<svg version="1.1" id="Layer_1" xmlns="http://www.w3.org/2000/svg" xmlns:xlink="http://www.w3.org/1999/xlink" x="0px" y="0px"
	 viewBox="0 0 50 50.142" style="enable-background:new 0 0 50 50.142;" xml:space="preserve">
<path style="fill:#F8F8F8;" d="M49.071,41.6L33.917,26.446c-0.068-0.068-0.139-0.131-0.212-0.191c1.326-2.497,2.08-5.342,2.08-8.361
	C35.786,8.027,27.759,0,17.893,0S0,8.027,0,17.893s8.027,17.893,17.893,17.893c2.946,0,5.725-0.72,8.178-1.987
	c0.072,0.089,0.148,0.176,0.231,0.26l15.155,15.155c1.238,1.238,3.246,1.238,4.485,0l3.129-3.129
	C50.31,44.846,50.31,42.838,49.071,41.6z M6.967,17.893c0-6.024,4.901-10.926,10.926-10.926s10.926,4.901,10.926,10.926
	s-4.901,10.926-10.926,10.926S6.967,23.917,6.967,17.893z"/>
</svg>
