<?xml version="1.0" encoding="utf-8"?>
<!-- Generator: Adobe Illustrator 19.0.0, SVG Export Plug-In . SVG Version: 6.00 Build 0)  -->
<svg version="1.1" id="Layer_1" xmlns="http://www.w3.org/2000/svg" xmlns:xlink="http://www.w3.org/1999/xlink" x="0px" y="0px"
	 viewBox="0 0 22 22" enable-background="new 0 0 22 22" xml:space="preserve">
<g>
	<path fill="#595D63" d="M18,22H4c-2.2,0-4-1.8-4-4V4c0-2.2,1.8-4,4-4H18c2.2,0,4,1.8,4,4V18C22,20.2,20.2,22,18,22z"/>
	<g>
		<path fill="none" stroke="#FFFFFF" stroke-miterlimit="10" d="M14.6,17H7.4c-0.4,0-0.7-0.3-0.7-0.8V5.8C6.7,5.4,7,5,7.4,5h4.5
			c0.2,0,0.3,0.1,0.4,0.2l2.8,2.9c0.1,0.1,0.2,0.3,0.2,0.4v7.6C15.3,16.6,15,17,14.6,17z"/>
		<path fill="#FFFFFF" stroke="#FFFFFF" stroke-miterlimit="10" d="M15.1,8.3l-2.5,0C12.3,8.3,12,8,12,7.7V5.3
			c0-0.1,0.1-0.2,0.2-0.1l2.9,2.9C15.2,8.2,15.2,8.3,15.1,8.3z"/>
	</g>
</g>
</svg>
