<?xml version="1.0" encoding="iso-8859-1"?>
<!-- Generator: Adobe Illustrator 19.2.1, SVG Export Plug-In . SVG Version: 6.00 Build 0)  -->
<svg version="1.1" id="Layer_1" xmlns="http://www.w3.org/2000/svg" xmlns:xlink="http://www.w3.org/1999/xlink" x="0px" y="0px"
	 viewBox="0 0 50 37.393" style="enable-background:new 0 0 50 37.393;" xml:space="preserve">
<g>
	<path style="fill:#353B44;" d="M2.646,9.061h44.677c1.049,0,2.039,0.511,2.647,1.367L50,10.472V5.881
		c0-1.228-0.996-2.224-2.224-2.224H20.998c-0.752,0-1.452-0.379-1.863-1.009l-1.068-1.638C17.656,0.38,16.955,0,16.204,0H6.917
		C6.128,0,5.399,0.418,4.999,1.098l-0.857,1.46c-0.399,0.68-1.129,1.098-1.918,1.098C0.996,3.657,0,4.652,0,5.881v4.551
		C0.609,9.574,1.596,9.061,2.646,9.061z"/>
	<path style="fill:#353B44;" d="M48.709,12.47c-0.439-0.619-1.15-0.987-1.909-0.987H3.173c-0.765,0-1.482,0.374-1.92,1.001
		l-0.825,1.182C0.15,14.067,0,14.543,0,15.031v2.951v5.592v11.595c0,1.228,0.996,2.224,2.224,2.224h45.552
		c1.228,0,2.224-0.996,2.224-2.224V23.574v-5.592v-2.93c0-0.494-0.153-0.976-0.439-1.379L48.709,12.47z"/>
</g>
</svg>
