<?xml version="1.0" encoding="utf-8"?>
<!-- Generator: Adobe Illustrator 19.0.1, SVG Export Plug-In . SVG Version: 6.00 Build 0)  -->
<svg version="1.1" id="Layer_1" xmlns="http://www.w3.org/2000/svg" xmlns:xlink="http://www.w3.org/1999/xlink" x="0px" y="0px"
	 viewBox="0 0 22 22" enable-background="new 0 0 22 22" xml:space="preserve">
<g>
	<path fill="#AACD4D" d="M18,22H4c-2.2,0-4-1.8-4-4V4c0-2.2,1.8-4,4-4H18c2.2,0,4,1.8,4,4V18C22,20.2,20.2,22,18,22z"/>
	<rect x="8.9" fill="#FFFFFF" width="2" height="2"/>
	<rect x="11" y="2" fill="#FFFFFF" width="2" height="2"/>
	<rect x="9" y="4" fill="#FFFFFF" width="2" height="2"/>
	<rect x="11.1" y="6" fill="#FFFFFF" width="2" height="2"/>
	<rect x="9" y="8" fill="#FFFFFF" width="2" height="2"/>
	<g>
		<path fill="#FFFFFF" d="M10.7,11l1,0c0.2,0,0.4,0,0.6,0.1c0.3,0.1,0.5,0.4,0.6,0.8c0,0.7,0.2,1.9,0.2,1.9l0.5,3.4
			c0,0,0.2,0.7-1.1,0.8c-1.1,0.1-2.5,0-2.8,0c-0.1,0-0.2,0-0.2,0c-0.2-0.1-0.7-0.2-0.7-0.7c0-0.5,0.4-2.5,0.5-3.2
			c0-0.2,0.1-0.3,0.1-0.5l0.2-1.6c0,0-0.1-0.6,0.8-0.9C10.4,11,10.6,11,10.7,11z"/>
		<path fill="#AACD4D" d="M10.9,13.5h0.5c0.1,0,0.2,0,0.3,0.1c0.1,0.1,0.3,0.2,0.3,0.4c0,0.4,0.1,0.9,0.1,0.9l0.3,1.7
			c0,0,0.1,0.3-0.6,0.4c-0.6,0.1-1.3,0-1.5,0c0,0-0.1,0-0.1,0c-0.1,0-0.4-0.1-0.4-0.4c0-0.3,0.3-1.6,0.3-1.7c0,0,0,0,0,0l0.1-0.9
			c0,0,0-0.3,0.4-0.4C10.8,13.5,10.8,13.5,10.9,13.5z"/>
	</g>
</g>
</svg>
