<?xml version="1.0" encoding="utf-8"?>
<!-- Generator: Adobe Illustrator 19.0.1, SVG Export Plug-In . SVG Version: 6.00 Build 0)  -->
<svg version="1.1" id="Layer_1" xmlns="http://www.w3.org/2000/svg" xmlns:xlink="http://www.w3.org/1999/xlink" x="0px" y="0px"
	 viewBox="0 0 22 22" enable-background="new 0 0 22 22" xml:space="preserve">
<g>
	<path fill="#F91D0A" d="M18,22H4c-2.2,0-4-1.8-4-4V4c0-2.2,1.8-4,4-4H18c2.2,0,4,1.8,4,4V18C22,20.2,20.2,22,18,22z"/>
	<g>
		<path id="path4463" fill="#FFFFFF" d="M8.1,12.3c0.5-1,1.1-2.1,1.5-3.2l0,0l0.2-0.4C9.2,6.5,8.9,4.7,9.2,3.5l0,0
			C9.3,3.2,9.6,3,10,3l0,0l0.2,0h0c0.5,0,0.8,0.6,0.8,0.9l0,0c0,0.4-0.2,1.1-0.2,1.1l0,0c0-0.3,0-0.8-0.2-1.2l0,0
			c-0.2-0.5-0.4-0.7-0.6-0.8l0,0C10,3.2,10,3.3,9.9,3.5l0,0c-0.1,0.3-0.1,0.8-0.1,1l0,0c0,0.8,0.2,1.8,0.5,2.9l0,0
			c0.1-0.2,0.1-0.3,0.1-0.5l0,0c0.1-0.2,0.5-1.8,0.5-1.8l0,0c0,0-0.1,2.1-0.2,2.7l0,0c0,0.1-0.1,0.3-0.1,0.4l0,0
			c0.5,1.4,1.3,2.7,2.3,3.6l0,0c0.4,0.4,0.9,0.6,1.3,0.9l0,0c1-0.1,1.9-0.2,2.7-0.2l0,0c1,0,1.8,0.2,2.1,0.5l0,0
			c0.1,0.1,0.2,0.3,0.2,0.5l0,0c0,0.1,0,0.3,0,0.3l0,0c0-0.1,0-0.3-0.8-0.6l0,0c-0.6-0.2-1.9-0.2-3.3,0l0,0c1.7,0.8,3.3,1.2,3.8,1
			l0,0c0.1-0.1,0.3-0.3,0.3-0.3l0,0c0,0-0.1,0.4-0.2,0.5l0,0c-0.1,0.1-0.2,0.2-0.4,0.3l0,0c-0.8,0.2-2.9-0.3-4.8-1.3l0,0
			c-2.1,0.3-4.3,0.9-6.2,1.5l0,0c-1.8,3.1-3.1,4.6-4.2,4l0,0L3,18.7c-0.2-0.1-0.2-0.3-0.2-0.5l0,0c0.1-0.6,0.9-1.6,2.5-2.5l0,0
			c0.2-0.1,0.9-0.5,0.9-0.5l0,0c0,0-0.6,0.5-0.7,0.6l0,0c-1.3,1-2.2,2.3-2.2,2.8l0,0l0,0C4.5,18.5,6.1,16.4,8.1,12.3 M8.8,12.7
			c-0.3,0.6-0.7,1.2-1,1.8l0,0c1.7-0.7,3.6-1.2,5.3-1.5l0,0c-0.2-0.2-0.5-0.3-0.7-0.5l0,0c-1-0.8-1.7-1.8-2.2-2.9l0,0
			C9.8,10.4,9.4,11.4,8.8,12.7"/>
	</g>
</g>
</svg>
