<?xml version="1.0" encoding="utf-8"?>
<!-- Generator: Adobe Illustrator 19.0.1, SVG Export Plug-In . SVG Version: 6.00 Build 0)  -->
<svg version="1.1" id="Layer_1" xmlns="http://www.w3.org/2000/svg" xmlns:xlink="http://www.w3.org/1999/xlink" x="0px" y="0px"
	 viewBox="0 0 22 22" enable-background="new 0 0 22 22" xml:space="preserve">
<g>
	<path fill="#F4A60C" d="M18,22H4c-2.2,0-4-1.8-4-4V4c0-2.2,1.8-4,4-4H18c2.2,0,4,1.8,4,4V18C22,20.2,20.2,22,18,22z"/>
	<g>
		<path fill="#FFFFFF" d="M11.9,15.5H4.7c-0.8,0-1.4-0.6-1.4-1.4V7.9c0-0.8,0.6-1.4,1.4-1.4h7.2c0.8,0,1.4,0.6,1.4,1.4v6.2
			C13.3,14.9,12.6,15.5,11.9,15.5z"/>
		<path fill="#FFFFFF" d="M14.4,10.6L18,6.8c0.3-0.3,0.7-0.1,0.7,0.3v7.8c0,0.4-0.5,0.6-0.7,0.3l-3.7-4.1
			C14.2,11,14.2,10.7,14.4,10.6z"/>
	</g>
</g>
</svg>
