<?xml version="1.0" encoding="utf-8"?>
<!-- Generator: Adobe Illustrator 19.0.0, SVG Export Plug-In . SVG Version: 6.00 Build 0)  -->
<svg version="1.1" id="Layer_1" xmlns="http://www.w3.org/2000/svg" xmlns:xlink="http://www.w3.org/1999/xlink" x="0px" y="0px"
	 viewBox="0 0 22 22" enable-background="new 0 0 22 22" xml:space="preserve">
<g>
	<path fill="#D04727" d="M18,22H4c-2.2,0-4-1.8-4-4V4c0-2.2,1.8-4,4-4H18c2.2,0,4,1.8,4,4V18C22,20.2,20.2,22,18,22z"/>
	<g>
		<path fill="#FFFFFF" d="M12.1,9.7V4.5c1.9,0,3.6,0.9,4.5,2.6L12.1,9.7z"/>
		<path fill="#FFFFFF" d="M10.6,12.3l4.5-2.6c1.4,2.5,0.6,5.7-1.9,7.1s-5.7,0.6-7.1-1.9C4.7,12.4,5.5,9.2,8,7.8
			c0.8-0.5,1.6-0.7,2.6-0.7V12.3z"/>
	</g>
</g>
</svg>
